<svg width="27" height="27" viewBox="0 0 27 27" fill="none" xmlns="http://www.w3.org/2000/svg">
<path d="M8.88078 9.18166C8.88078 9.58255 8.88078 9.98344 8.88078 10.3909C8.88078 10.7524 8.71648 10.9167 8.35502 10.9167C7.53352 10.9167 6.7186 10.9167 5.8971 10.9167C5.53564 10.9167 5.37134 10.7524 5.37134 10.3909C5.37134 9.56941 5.37134 8.75448 5.37134 7.93299C5.37134 7.57153 5.53564 7.40723 5.8971 7.40723C6.7186 7.40723 7.53352 7.40723 8.35502 7.40723C8.71648 7.40723 8.88078 7.57153 8.88078 7.93299C8.88078 8.35359 8.88078 8.76763 8.88078 9.18166ZM6.25856 8.29444C6.25856 8.87935 6.25856 9.45111 6.25856 10.0229C6.84346 10.0229 7.41523 10.0229 7.98699 10.0229C7.98699 9.43797 7.98699 8.86621 7.98699 8.29444C7.40208 8.29444 6.83689 8.29444 6.25856 8.29444Z" fill="black"/>
<path d="M10.6355 9.14223C10.6355 8.74134 10.6355 8.34045 10.6355 7.93299C10.6355 7.57153 10.7998 7.40723 11.1612 7.40723C11.9827 7.40723 12.7977 7.40723 13.6192 7.40723C13.9806 7.40723 14.1449 7.57153 14.1449 7.93299C14.1449 8.75448 14.1449 9.56941 14.1449 10.3909C14.1449 10.7524 13.9806 10.9167 13.6192 10.9167C12.7977 10.9167 11.9827 10.9167 11.1612 10.9167C10.7998 10.9167 10.6355 10.7524 10.6355 10.3909C10.6289 9.97687 10.6355 9.55627 10.6355 9.14223ZM13.2577 8.29444C12.6662 8.29444 12.101 8.29444 11.5227 8.29444C11.5227 8.87935 11.5227 9.45111 11.5227 10.0229C12.1076 10.0229 12.6794 10.0229 13.2577 10.0229C13.2577 9.44454 13.2577 8.87278 13.2577 8.29444Z" fill="black"/>
<path d="M19.4093 9.18166C19.4093 9.58255 19.4093 9.98344 19.4093 10.3909C19.4093 10.7524 19.245 10.9167 18.8836 10.9167C18.0621 10.9167 17.2472 10.9167 16.4257 10.9167C16.0642 10.9167 15.8999 10.7524 15.8999 10.3909C15.8999 9.56941 15.8999 8.75448 15.8999 7.93299C15.8999 7.57153 16.0642 7.40723 16.4257 7.40723C17.2472 7.40723 18.0621 7.40723 18.8836 7.40723C19.245 7.40723 19.4093 7.57153 19.4093 7.93299C19.4159 8.35359 19.4093 8.76763 19.4093 9.18166ZM18.5221 10.0294C18.5221 9.43797 18.5221 8.86621 18.5221 8.30102C17.9372 8.30102 17.3589 8.30102 16.7937 8.30102C16.7937 8.88592 16.7937 9.45111 16.7937 10.0294C17.372 10.0294 17.9372 10.0294 18.5221 10.0294Z" fill="black"/>
<path d="M7.10024 16.1808C6.69935 16.1808 6.29846 16.1808 5.89099 16.1808C5.52953 16.1808 5.36523 16.0165 5.36523 15.6551C5.36523 14.8336 5.36523 14.0186 5.36523 13.1971C5.36523 12.8357 5.52953 12.6714 5.89099 12.6714C6.71249 12.6714 7.52742 12.6714 8.34892 12.6714C8.71037 12.6714 8.87467 12.8357 8.87467 13.1971C8.87467 14.0186 8.87467 14.8336 8.87467 15.6551C8.87467 16.0165 8.71037 16.1808 8.34892 16.1808C7.93488 16.1874 7.52085 16.1808 7.10024 16.1808ZM6.25902 15.2936C6.8505 15.2936 7.42227 15.2936 7.98746 15.2936C7.98746 14.7087 7.98746 14.1304 7.98746 13.5652C7.40255 13.5652 6.83736 13.5652 6.25902 13.5652C6.25902 14.1435 6.25902 14.7087 6.25902 15.2936Z" fill="black"/>
<path d="M14.1452 14.432C14.1452 14.8394 14.1452 15.2535 14.1452 15.6609C14.1452 16.0158 13.9743 16.1801 13.6128 16.1867C12.7913 16.1867 11.9764 16.1867 11.1549 16.1867C10.8 16.1867 10.6357 16.0158 10.6292 15.6609C10.6292 14.8394 10.6292 14.0245 10.6292 13.203C10.6292 12.8481 10.8 12.6838 11.1615 12.6772C11.983 12.6772 12.7979 12.6772 13.6194 12.6772C13.9743 12.6772 14.1386 12.8481 14.1452 13.203C14.1452 13.6105 14.1452 14.0245 14.1452 14.432ZM11.5164 15.2863C12.0947 15.2863 12.673 15.2863 13.2514 15.2863C13.2514 14.708 13.2514 14.1362 13.2514 13.5645C12.6665 13.5645 12.0947 13.5645 11.5164 13.5645C11.5164 14.1428 11.5164 14.708 11.5164 15.2863Z" fill="black"/>
<path d="M17.6809 12.6714C18.0818 12.6714 18.4827 12.6714 18.8902 12.6714C19.2516 12.6714 19.4159 12.8357 19.4159 13.1971C19.4159 14.0186 19.4159 14.8336 19.4159 15.6551C19.4159 16.0165 19.2516 16.1808 18.8902 16.1808C18.0687 16.1808 17.2538 16.1808 16.4323 16.1808C16.0708 16.1808 15.9065 16.0165 15.9065 15.6551C15.9065 14.8336 15.9065 14.0186 15.9065 13.1971C15.9065 12.8357 16.0708 12.6714 16.4323 12.6714C16.8463 12.6714 17.2603 12.6714 17.6809 12.6714ZM16.7937 13.5586C16.7937 14.1501 16.7937 14.7218 16.7937 15.287C17.3786 15.287 17.957 15.287 18.5221 15.287C18.5221 14.7021 18.5221 14.1369 18.5221 13.5586C17.9438 13.5586 17.3786 13.5586 16.7937 13.5586Z" fill="black"/>
<path d="M7.10024 21.4513C6.69935 21.4513 6.29846 21.4513 5.89099 21.4513C5.52953 21.4513 5.36523 21.287 5.36523 20.9256C5.36523 20.1041 5.36523 19.2892 5.36523 18.4677C5.36523 18.1062 5.52953 17.9419 5.89099 17.9419C6.71249 17.9419 7.52742 17.9419 8.34892 17.9419C8.71037 17.9419 8.87467 18.1062 8.87467 18.4677C8.87467 19.2892 8.87467 20.1041 8.87467 20.9256C8.87467 21.287 8.71037 21.4513 8.34892 21.4513C7.93488 21.4513 7.52085 21.4513 7.10024 21.4513ZM7.99403 18.8291C7.40912 18.8291 6.83736 18.8291 6.2656 18.8291C6.2656 19.414 6.2656 19.9858 6.2656 20.5575C6.8505 20.5575 7.41569 20.5575 7.99403 20.5575C7.99403 19.9858 7.99403 19.414 7.99403 18.8291Z" fill="black"/>
<path d="M17.6349 21.4513C17.234 21.4513 16.8331 21.4513 16.4257 21.4513C16.0642 21.4513 15.8999 21.287 15.8999 20.9256C15.8999 20.1041 15.8999 19.2892 15.8999 18.4677C15.8999 18.1062 16.0642 17.9419 16.4257 17.9419C17.2472 17.9419 18.0621 17.9419 18.8836 17.9419C19.245 17.9419 19.4093 18.1062 19.4093 18.4677C19.4093 19.2892 19.4093 20.1041 19.4093 20.9256C19.4093 21.287 19.245 21.4513 18.8836 21.4513C18.4695 21.4513 18.0489 21.4513 17.6349 21.4513ZM18.5221 18.8291C17.9306 18.8291 17.3589 18.8291 16.7937 18.8291C16.7937 19.414 16.7937 19.9858 16.7937 20.5575C17.3786 20.5575 17.9438 20.5575 18.5221 20.5575C18.5221 19.9792 18.5221 19.414 18.5221 18.8291Z" fill="black"/>
<path d="M12.4031 19.696C12.6331 19.7025 12.8369 19.9128 12.8303 20.1428C12.8237 20.3729 12.6134 20.5766 12.3834 20.57C12.1534 20.5635 11.9496 20.3532 11.9562 20.1231C11.9628 19.8931 12.1731 19.6894 12.4031 19.696Z" fill="black"/>
<path d="M23.0107 23.9089C23.0107 23.6658 22.8135 23.4686 22.5704 23.4686H22.268C21.9066 23.462 21.5451 23.4686 21.1639 23.4686C21.1639 23.3569 21.1639 23.2583 21.1639 23.1663C21.1639 18.0138 21.1639 12.8548 21.1639 7.7024C21.1639 6.91376 21.1639 6.12512 21.1639 5.32991C21.1639 4.92902 21.0062 4.77786 20.5988 4.77129C20.211 4.77129 19.8233 4.77129 19.4355 4.77129C19.1398 4.77129 18.844 4.77129 18.5286 4.77129C18.5286 3.97608 18.5286 3.21373 18.5286 2.44481C18.5286 2.03077 18.3774 1.87305 17.9568 1.87305C14.2436 1.87305 10.5239 1.87305 6.81073 1.87305C6.39013 1.87305 6.23897 2.0242 6.23897 2.44481C6.23897 3.14144 6.23897 3.8315 6.23897 4.52813C6.23897 4.60699 6.23897 4.67928 6.23897 4.77129C5.51605 4.77129 4.81942 4.77129 4.12279 4.77129C3.77447 4.77129 3.61018 4.94216 3.6036 5.28391C3.6036 5.34963 3.6036 5.41535 3.6036 5.48107C3.6036 11.3761 3.6036 17.2712 3.6036 23.1663C3.6036 23.2583 3.6036 23.3503 3.6036 23.4686C3.5116 23.4686 3.4393 23.4686 3.36701 23.4686C3.12385 23.4686 2.88069 23.4686 2.64409 23.4686H2.21034C1.96718 23.4686 1.77002 23.6658 1.77002 23.9089C1.77002 24.1324 1.93432 24.3098 2.14462 24.3427C2.14462 24.3427 2.15119 24.3427 2.15119 24.3492C2.17091 24.3492 2.19063 24.3492 2.20377 24.3492C8.98606 24.3492 15.7749 24.3492 22.5572 24.3492C22.5704 24.3492 22.5835 24.3492 22.5966 24.3492C22.8398 24.323 23.0107 24.1324 23.0107 23.9089ZM12.8307 22.1345C12.8307 22.0556 12.8372 21.9702 12.8307 21.8913C12.811 21.635 12.6335 21.451 12.4035 21.451C12.1669 21.4444 11.9697 21.635 11.9632 21.9045C11.95 22.3711 11.9566 22.8377 11.9566 23.3109C11.9566 23.3569 11.9566 23.3963 11.9566 23.4555C11.5163 23.4555 11.0957 23.4555 10.6553 23.4555C10.6553 21.9176 10.6553 20.3798 10.6553 18.8288C11.8186 18.8288 12.9687 18.8288 14.1385 18.8288C14.1385 20.3666 14.1385 21.9045 14.1385 23.4555C13.7113 23.4555 13.2841 23.4555 12.8372 23.4555C12.8307 23.0086 12.8307 22.5748 12.8307 22.1345ZM7.13276 2.76684C10.6356 2.76684 14.1254 2.76684 17.6348 2.76684C17.6348 3.42404 17.6348 4.08123 17.6348 4.75815C14.1451 4.75815 10.6488 4.75815 7.13276 4.75815C7.13276 4.08781 7.13276 3.43061 7.13276 2.76684ZM4.50397 5.66508C9.76155 5.66508 15.0126 5.66508 20.2767 5.66508C20.2767 11.593 20.2767 17.5144 20.2767 23.4555C18.5352 23.4555 16.7936 23.4555 15.0257 23.4555C15.0257 23.37 15.0257 23.2911 15.0257 23.2123C15.0257 21.6547 15.0257 20.0972 15.0257 18.5396C15.0257 18.0796 14.8811 17.9416 14.4211 17.9416C13.0673 17.9416 11.7134 17.9416 10.3596 17.9416C9.89957 17.9416 9.76155 18.0861 9.76155 18.5462C9.76155 20.0972 9.76155 21.6482 9.76155 23.1991C9.76155 23.278 9.76155 23.3569 9.76155 23.4555C8.00683 23.4555 6.26526 23.4555 4.50397 23.4555C4.50397 17.5144 4.50397 11.593 4.50397 5.66508Z" fill="black"/>
</svg>
