<svg width="16" height="16" viewBox="0 0 16 16" fill="none" xmlns="http://www.w3.org/2000/svg">
<path d="M5.4187 5.60273C5.4187 5.84734 5.4187 6.09195 5.4187 6.34057C5.4187 6.56112 5.31845 6.66137 5.0979 6.66137C4.59664 6.66137 4.0994 6.66137 3.59815 6.66137C3.37759 6.66137 3.27734 6.56112 3.27734 6.34057C3.27734 5.83932 3.27734 5.34207 3.27734 4.84082C3.27734 4.62027 3.37759 4.52002 3.59815 4.52002C4.0994 4.52002 4.59664 4.52002 5.0979 4.52002C5.31845 4.52002 5.4187 4.62027 5.4187 4.84082C5.4187 5.09746 5.4187 5.35009 5.4187 5.60273ZM3.8187 5.06137C3.8187 5.41827 3.8187 5.76714 3.8187 6.11601C4.17559 6.11601 4.52446 6.11601 4.87333 6.11601C4.87333 5.75912 4.87333 5.41025 4.87333 5.06137C4.51644 5.06137 4.17158 5.06137 3.8187 5.06137Z" fill="white"/>
<path d="M6.48958 5.57867C6.48958 5.33405 6.48958 5.08944 6.48958 4.84082C6.48958 4.62027 6.58983 4.52002 6.81038 4.52002C7.31163 4.52002 7.80887 4.52002 8.31013 4.52002C8.53068 4.52002 8.63093 4.62027 8.63093 4.84082C8.63093 5.34207 8.63093 5.83932 8.63093 6.34057C8.63093 6.56112 8.53068 6.66137 8.31013 6.66137C7.80887 6.66137 7.31163 6.66137 6.81038 6.66137C6.58983 6.66137 6.48958 6.56112 6.48958 6.34057C6.48557 6.08794 6.48958 5.8313 6.48958 5.57867ZM8.08957 5.06137C7.72867 5.06137 7.38381 5.06137 7.03093 5.06137C7.03093 5.41827 7.03093 5.76714 7.03093 6.11601C7.38782 6.11601 7.73669 6.11601 8.08957 6.11601C8.08957 5.76313 8.08957 5.41426 8.08957 5.06137Z" fill="white"/>
<path d="M11.843 5.60273C11.843 5.84734 11.843 6.09195 11.843 6.34057C11.843 6.56112 11.7428 6.66137 11.5222 6.66137C11.021 6.66137 10.5237 6.66137 10.0225 6.66137C9.80191 6.66137 9.70166 6.56112 9.70166 6.34057C9.70166 5.83932 9.70166 5.34207 9.70166 4.84082C9.70166 4.62027 9.80191 4.52002 10.0225 4.52002C10.5237 4.52002 11.021 4.52002 11.5222 4.52002C11.7428 4.52002 11.843 4.62027 11.843 4.84082C11.847 5.09746 11.843 5.35009 11.843 5.60273ZM11.3017 6.12002C11.3017 5.75912 11.3017 5.41025 11.3017 5.06538C10.9448 5.06538 10.5919 5.06538 10.247 5.06538C10.247 5.42228 10.247 5.76714 10.247 6.12002C10.5999 6.12002 10.9448 6.12002 11.3017 6.12002Z" fill="white"/>
<path d="M4.33233 9.87329C4.08772 9.87329 3.84311 9.87329 3.59448 9.87329C3.37393 9.87329 3.27368 9.77304 3.27368 9.55248C3.27368 9.05123 3.27368 8.55399 3.27368 8.05274C3.27368 7.83218 3.37393 7.73193 3.59448 7.73193C4.09574 7.73193 4.59298 7.73193 5.09423 7.73193C5.31478 7.73193 5.41503 7.83218 5.41503 8.05274C5.41503 8.55399 5.41503 9.05123 5.41503 9.55248C5.41503 9.77304 5.31478 9.87329 5.09423 9.87329C4.8416 9.8773 4.58897 9.87329 4.33233 9.87329ZM3.81904 9.33193C4.17995 9.33193 4.52882 9.33193 4.87368 9.33193C4.87368 8.97504 4.87368 8.62216 4.87368 8.2773C4.51679 8.2773 4.17193 8.2773 3.81904 8.2773C3.81904 8.63018 3.81904 8.97504 3.81904 9.33193Z" fill="white"/>
<path d="M8.63096 8.80603C8.63096 9.05465 8.63096 9.30728 8.63096 9.5559C8.63096 9.77244 8.5267 9.8727 8.30615 9.87671C7.80489 9.87671 7.30765 9.87671 6.8064 9.87671C6.58986 9.87671 6.48961 9.77244 6.4856 9.5559C6.4856 9.05465 6.4856 8.55741 6.4856 8.05615C6.4856 7.83961 6.58986 7.73936 6.81041 7.73535C7.31166 7.73535 7.8089 7.73535 8.31016 7.73535C8.5267 7.73535 8.62695 7.83961 8.63096 8.05615C8.63096 8.30478 8.63096 8.55741 8.63096 8.80603ZM7.02695 9.32733C7.37983 9.32733 7.73271 9.32733 8.0856 9.32733C8.0856 8.97445 8.0856 8.62558 8.0856 8.27671C7.7287 8.27671 7.37983 8.27671 7.02695 8.27671C7.02695 8.62959 7.02695 8.97445 7.02695 9.32733Z" fill="white"/>
<path d="M10.7883 7.73193C11.0329 7.73193 11.2775 7.73193 11.5261 7.73193C11.7467 7.73193 11.8469 7.83218 11.8469 8.05274C11.8469 8.55399 11.8469 9.05123 11.8469 9.55248C11.8469 9.77304 11.7467 9.87329 11.5261 9.87329C11.0249 9.87329 10.5276 9.87329 10.0264 9.87329C9.80582 9.87329 9.70557 9.77304 9.70557 9.55248C9.70557 9.05123 9.70557 8.55399 9.70557 8.05274C9.70557 7.83218 9.80582 7.73193 10.0264 7.73193C10.279 7.73193 10.5316 7.73193 10.7883 7.73193ZM10.2469 8.27329C10.2469 8.63419 10.2469 8.98306 10.2469 9.32792C10.6038 9.32792 10.9567 9.32792 11.3016 9.32792C11.3016 8.97103 11.3016 8.62617 11.3016 8.27329C10.9487 8.27329 10.6038 8.27329 10.2469 8.27329Z" fill="white"/>
<path d="M4.33233 13.0891C4.08772 13.0891 3.84311 13.0891 3.59448 13.0891C3.37393 13.0891 3.27368 12.9889 3.27368 12.7683C3.27368 12.2671 3.27368 11.7698 3.27368 11.2686C3.27368 11.048 3.37393 10.9478 3.59448 10.9478C4.09574 10.9478 4.59298 10.9478 5.09423 10.9478C5.31478 10.9478 5.41503 11.048 5.41503 11.2686C5.41503 11.7698 5.41503 12.2671 5.41503 12.7683C5.41503 12.9889 5.31478 13.0891 5.09423 13.0891C4.8416 13.0891 4.58897 13.0891 4.33233 13.0891ZM4.87769 11.4891C4.5208 11.4891 4.17193 11.4891 3.82305 11.4891C3.82305 11.846 3.82305 12.1949 3.82305 12.5437C4.17995 12.5437 4.52481 12.5437 4.87769 12.5437C4.87769 12.1949 4.87769 11.846 4.87769 11.4891Z" fill="white"/>
<path d="M10.7603 13.0891C10.5157 13.0891 10.2711 13.0891 10.0225 13.0891C9.80191 13.0891 9.70166 12.9889 9.70166 12.7683C9.70166 12.2671 9.70166 11.7698 9.70166 11.2686C9.70166 11.048 9.80191 10.9478 10.0225 10.9478C10.5237 10.9478 11.021 10.9478 11.5222 10.9478C11.7428 10.9478 11.843 11.048 11.843 11.2686C11.843 11.7698 11.843 12.2671 11.843 12.7683C11.843 12.9889 11.7428 13.0891 11.5222 13.0891C11.2696 13.0891 11.0129 13.0891 10.7603 13.0891ZM11.3017 11.4891C10.9408 11.4891 10.5919 11.4891 10.247 11.4891C10.247 11.846 10.247 12.1949 10.247 12.5437C10.6039 12.5437 10.9488 12.5437 11.3017 12.5437C11.3017 12.1909 11.3017 11.846 11.3017 11.4891Z" fill="white"/>
<path d="M7.56794 12.0182C7.70829 12.0222 7.8326 12.1505 7.82859 12.2908C7.82458 12.4312 7.69626 12.5555 7.55591 12.5515C7.41556 12.5475 7.29125 12.4192 7.29526 12.2788C7.29927 12.1385 7.42759 12.0142 7.56794 12.0182Z" fill="white"/>
<path d="M14.0405 14.5887C14.0405 14.4403 13.9202 14.32 13.7718 14.32H13.5873C13.3668 14.316 13.1462 14.32 12.9137 14.32C12.9137 14.2518 12.9137 14.1917 12.9137 14.1355C12.9137 10.9917 12.9137 7.84382 12.9137 4.69996C12.9137 4.21876 12.9137 3.73755 12.9137 3.25234C12.9137 3.00773 12.8174 2.9155 12.5688 2.91149C12.3322 2.91149 12.0956 2.91149 11.859 2.91149C11.6786 2.91149 11.4981 2.91149 11.3056 2.91149C11.3056 2.42627 11.3056 1.96111 11.3056 1.49194C11.3056 1.23931 11.2134 1.14307 10.9568 1.14307C8.69111 1.14307 6.42143 1.14307 4.15577 1.14307C3.89913 1.14307 3.8069 1.2353 3.8069 1.49194C3.8069 1.917 3.8069 2.33805 3.8069 2.76312C3.8069 2.81124 3.8069 2.85535 3.8069 2.91149C3.36579 2.91149 2.94073 2.91149 2.51567 2.91149C2.30314 2.91149 2.20288 3.01575 2.19887 3.22427C2.19887 3.26437 2.19887 3.30447 2.19887 3.34457C2.19887 6.94156 2.19887 10.5386 2.19887 14.1355C2.19887 14.1917 2.19887 14.2478 2.19887 14.32C2.14273 14.32 2.09862 14.32 2.05451 14.32C1.90614 14.32 1.75777 14.32 1.61341 14.32H1.34875C1.20038 14.32 1.08008 14.4403 1.08008 14.5887C1.08008 14.725 1.18033 14.8333 1.30865 14.8533C1.30865 14.8533 1.31266 14.8533 1.31266 14.8574C1.32469 14.8574 1.33672 14.8574 1.34474 14.8574C5.48309 14.8574 9.62544 14.8574 13.7638 14.8574C13.7718 14.8574 13.7798 14.8574 13.7878 14.8574C13.9362 14.8413 14.0405 14.725 14.0405 14.5887ZM7.82895 13.506C7.82895 13.4579 7.83296 13.4057 7.82895 13.3576C7.81692 13.2012 7.70865 13.0889 7.5683 13.0889C7.42394 13.0849 7.30364 13.2012 7.29963 13.3656C7.29161 13.6503 7.29562 13.935 7.29562 14.2238C7.29562 14.2518 7.29562 14.2759 7.29562 14.312C7.02695 14.312 6.7703 14.312 6.50163 14.312C6.50163 13.3736 6.50163 12.4353 6.50163 11.4889C7.21141 11.4889 7.91316 11.4889 8.62695 11.4889C8.62695 12.4273 8.62695 13.3656 8.62695 14.312C8.36629 14.312 8.10564 14.312 7.83296 14.312C7.82895 14.0393 7.82895 13.7746 7.82895 13.506ZM4.35226 1.68843C6.4896 1.68843 8.61892 1.68843 10.7603 1.68843C10.7603 2.08943 10.7603 2.49043 10.7603 2.90347C8.63096 2.90347 6.49762 2.90347 4.35226 2.90347C4.35226 2.49444 4.35226 2.09344 4.35226 1.68843ZM2.74825 3.45685C5.95627 3.45685 9.16028 3.45685 12.3723 3.45685C12.3723 7.07389 12.3723 10.6869 12.3723 14.312C11.3097 14.312 10.247 14.312 9.1683 14.312C9.1683 14.2599 9.1683 14.2117 9.1683 14.1636C9.1683 13.2132 9.1683 12.2629 9.1683 11.3125C9.1683 11.0318 9.08008 10.9476 8.79938 10.9476C7.97331 10.9476 7.14725 10.9476 6.32118 10.9476C6.04048 10.9476 5.95627 11.0358 5.95627 11.3165C5.95627 12.2629 5.95627 13.2092 5.95627 14.1556C5.95627 14.2037 5.95627 14.2518 5.95627 14.312C4.88559 14.312 3.82294 14.312 2.74825 14.312C2.74825 10.6869 2.74825 7.07389 2.74825 3.45685Z" fill="white"/>
</svg>
